<svg width="1540" height="1540" viewBox="0 0 1540 1540" fill="none" xmlns="http://www.w3.org/2000/svg">
<path d="M765.473 1433.42C786.686 1469.89 849.807 1471.19 872.572 1435.49C884.73 1416.6 885.765 1392.29 899.217 1374.44C916.808 1350.9 949.404 1345.2 978.895 1341.32C1002.95 1338.22 1026.75 1335.11 1050.81 1331.75C1068.4 1329.42 1086.51 1326.84 1101 1317.27C1111.6 1310.28 1137.47 1296.83 1148.08 1290.1C1181.71 1268.89 1135.4 1237.85 1092.98 1254.4C1065.04 1265.27 1055.47 1273.03 1026.49 1280.53C986.397 1290.88 950.956 1317.52 930.002 1352.96" stroke="#595959" stroke-opacity="0.14" stroke-width="4" stroke-miterlimit="10"/>
<path d="M762.11 70.3646C762.11 70.3646 288.702 35.1823 407.7 500.83C407.7 500.83 465.13 671.309 593.701 828.594C593.701 828.594 700.8 995.969 704.163 1004.25C704.163 1004.25 724.858 1026.24 715.804 1166.71L707.008 1340.03C707.008 1340.03 683.726 1410.39 704.163 1418.41C704.163 1418.41 736.241 1431.87 762.369 1431.87C788.497 1431.87 820.575 1418.41 820.575 1418.41C841.011 1410.39 817.729 1340.03 817.729 1340.03L808.933 1166.71C803.501 1022.1 820.575 1004.25 820.575 1004.25C826.266 991.312 931.036 828.594 931.036 828.594C1061.16 672.085 1117.04 500.83 1117.04 500.83C1235.52 35.1823 762.11 70.3646 762.11 70.3646ZM534.719 347.684C546.877 335.008 569.125 335.008 581.801 347.684C594.477 360.36 594.477 382.607 581.801 394.766C569.125 406.924 546.619 406.666 534.46 393.731C522.819 381.572 522.819 360.101 534.719 347.684ZM580.766 496.432C567.831 508.849 547.653 508.849 534.977 496.691C522.56 484.532 522.56 462.026 534.977 449.35C547.912 436.415 568.866 436.674 581.801 450.126C595.253 463.578 594.735 483.497 580.766 496.432ZM839.977 245.5C852.653 232.824 874.124 233.6 887.059 246.793C899.993 259.987 899.476 280.682 886.024 293.358C873.348 305.258 852.394 305.258 840.235 293.099C828.077 280.941 827.818 257.658 839.977 245.5ZM840.235 347.684C852.652 335.525 873.865 335.266 886.541 347.166C899.476 359.325 899.476 381.572 886.8 394.507C873.865 407.183 854.205 407.183 841.27 394.507C827.559 381.055 827.301 360.618 840.235 347.684ZM840.494 550.24C853.687 536.788 873.607 536.271 886.8 549.206C899.476 561.623 899.476 583.612 887.059 596.288C874.9 608.446 853.687 608.705 841.27 596.805C827.559 584.129 827.301 563.692 840.494 550.24ZM841.27 448.833C853.687 437.191 875.159 437.191 887.317 449.091C899.476 460.991 899.217 484.532 887.059 496.432C873.865 509.367 853.17 508.849 840.235 495.656C827.301 482.204 827.818 461.509 841.27 448.833ZM739.086 245.5C751.762 233.341 772.716 233.6 785.134 245.759C798.327 258.434 797.81 279.389 784.358 292.582C771.164 305.517 752.28 305.258 739.086 292.065C725.634 278.871 725.634 258.434 739.086 245.5ZM785.392 393.99C772.199 407.442 752.021 407.442 738.828 394.248C726.152 381.314 725.893 359.325 738.569 347.166C750.469 335.784 772.975 335.784 785.134 346.908C797.81 358.549 797.81 381.314 785.392 393.99ZM738.31 449.867C750.469 437.191 772.975 436.933 785.392 449.35C798.068 461.767 797.81 483.756 784.875 496.432C772.199 508.849 752.28 509.108 739.345 496.691C726.152 483.497 725.375 462.802 738.31 449.867ZM784.875 598.616C772.199 610.774 749.693 609.998 737.793 597.322C725.375 584.129 726.41 562.916 739.862 550.499C752.797 538.599 773.492 539.116 785.651 551.534C798.068 564.21 797.81 586.199 784.875 598.616ZM636.644 245.759C648.544 233.6 672.343 233.859 684.243 246.017C695.626 257.917 695.626 280.165 683.985 292.323C671.567 305.517 650.096 305.775 637.161 292.841C624.485 279.906 624.226 258.434 636.644 245.759ZM636.385 348.201C648.802 335.525 671.05 335.008 683.467 347.166C696.402 359.842 696.143 380.796 682.95 393.99C669.498 407.183 649.578 407.183 636.644 393.472C624.485 381.055 624.226 360.877 636.385 348.201ZM636.385 551.534C649.061 538.34 670.015 538.34 683.208 551.275C696.402 564.21 696.402 584.905 683.208 597.84C670.533 610.257 648.285 609.998 636.126 597.322C624.485 585.423 624.485 563.692 636.385 551.534ZM636.644 448.833C648.802 436.933 670.532 436.933 682.691 448.833C696.143 461.509 696.402 482.204 683.467 495.397C670.274 508.849 649.837 509.108 636.644 496.173C624.485 484.015 624.485 460.991 636.644 448.833ZM859.12 801.949C829.111 840.494 795.481 876.97 777.89 923.017C776.079 927.415 761.851 928.967 761.851 928.967C761.851 928.967 744.26 929.743 742.191 922.5C725.117 863.518 676.482 820.575 641.559 770.647C634.315 760.299 626.037 750.21 619.311 737.017C726.669 782.547 798.068 783.064 904.391 740.38C892.491 763.662 874.641 782.288 859.12 801.949ZM989.242 496.432C976.566 509.108 955.612 508.591 942.419 495.397C928.967 481.687 929.226 462.802 943.195 449.091C955.871 436.674 976.049 436.674 988.725 448.833C1001.14 461.25 1001.4 484.274 989.242 496.432ZM988.466 395.024C976.049 406.924 954.836 407.183 942.419 395.283C929.743 383.125 929.484 360.877 941.902 348.201C954.836 335.008 975.79 335.008 988.725 347.942C1001.4 360.877 1001.4 382.348 988.466 395.024Z" fill="#595959" fill-opacity="0.14"/>
<path d="M820.057 1004.51C820.057 1004.51 802.983 1022.36 808.416 1166.96L817.212 1340.29C817.212 1340.29 840.494 1410.65 820.057 1418.67C820.057 1418.67 787.979 1432.13 761.851 1432.13C735.723 1432.13 703.645 1418.67 703.645 1418.67C683.209 1410.65 706.491 1340.29 706.491 1340.29L715.286 1166.96C724.341 1026.49 703.645 1004.51 703.645 1004.51C703.645 1004.51 725.375 1016.41 761.851 1016.41C762.11 1016.41 807.899 1015.63 820.057 1004.51Z" stroke="#595959" stroke-opacity="0.14" stroke-width="4" stroke-miterlimit="10" stroke-linecap="round" stroke-linejoin="round"/>
<path d="M762.11 1350.12C767.025 1350.9 772.199 1351.15 777.114 1351.15C782.029 1351.15 787.203 1350.9 792.118 1350.12C797.033 1349.34 801.431 1347.53 806.088 1345.98C810.744 1344.43 814.883 1342.36 819.798 1340.03C820.057 1340.03 820.057 1340.03 820.057 1340.03V1340.29C817.211 1344.69 812.814 1348.31 808.157 1350.64C803.242 1352.96 797.809 1353.48 792.636 1354C787.462 1354.26 782.288 1354.26 777.114 1353.74C771.94 1352.96 767.025 1352.19 762.11 1350.64C761.851 1350.64 761.851 1350.38 761.851 1350.38C761.851 1350.12 761.851 1350.12 762.11 1350.12Z" fill="#595959" fill-opacity="0.14"/>
</svg>
